<svg xmlns="http://www.w3.org/2000/svg" width="512" height="512" viewBox="0 0 512 512">
  <circle cx="256" cy="256" r="256" fill="#1a237e" />
  <path d="M320.5 180.8c-12.3-12.3-28.7-19.1-46.1-19.1-17.4 0-33.8 6.8-46.1 19.1-12.3 12.3-19.1 28.7-19.1 46.1 0 17.4 6.8 33.8 19.1 46.1 1.9 1.9 3.9 3.6 6 5.2l-10.6 31.8c-0.8 2.5-0.2 5.2 1.6 7.1 1.3 1.3 3 2 4.7 2 0.8 0 1.6-0.1 2.3-0.4l31.8-10.6c1.6 2.1 3.3 4.1 5.2 6 12.3 12.3 28.7 19.1 46.1 19.1 17.4 0 33.8-6.8 46.1-19.1 12.3-12.3 19.1-28.7 19.1-46.1 0-17.4-6.8-33.8-19.1-46.1zm-10.6 81.6c-9.5 9.5-22.1 14.7-35.5 14.7-13.4 0-26-5.2-35.5-14.7-9.5-9.5-14.7-22.1-14.7-35.5 0-13.4 5.2-26 14.7-35.5 9.5-9.5 22.1-14.7 35.5-14.7 13.4 0 26 5.2 35.5 14.7 9.5 9.5 14.7 22.1 14.7 35.5 0 13.4-5.2 26-14.7 35.5z" fill="white" />
  <path d="M274.4 161.7c-35.9 0-65.2 29.3-65.2 65.2 0 35.9 29.3 65.2 65.2 65.2 35.9 0 65.2-29.3 65.2-65.2 0-35.9-29.3-65.2-65.2-65.2zm0 119.7c-30.1 0-54.5-24.5-54.5-54.5 0-30.1 24.5-54.5 54.5-54.5 30.1 0 54.5 24.5 54.5 54.5 0 30.1-24.5 54.5-54.5 54.5z" fill="white" />
  <path d="M274.4 193.1c-18.6 0-33.8 15.2-33.8 33.8 0 18.6 15.2 33.8 33.8 33.8 18.6 0 33.8-15.2 33.8-33.8 0-18.6-15.2-33.8-33.8-33.8zm0 56.9c-12.8 0-23.1-10.4-23.1-23.1 0-12.8 10.4-23.1 23.1-23.1 12.8 0 23.1 10.4 23.1 23.1 0 12.8-10.4 23.1-23.1 23.1z" fill="white" />
  <path d="M274.4 214.5c-6.8 0-12.4 5.6-12.4 12.4 0 6.8 5.6 12.4 12.4 12.4 6.8 0 12.4-5.6 12.4-12.4 0-6.8-5.6-12.4-12.4-12.4z" fill="white" />
  <path d="M237.6 350.3c0 5.9-4.8 10.7-10.7 10.7-5.9 0-10.7-4.8-10.7-10.7v-75.2c0-5.9 4.8-10.7 10.7-10.7 5.9 0 10.7 4.8 10.7 10.7v75.2z" fill="white" />
</svg>
